<?xml version="1.0" encoding="UTF-8"?>
<!DOCTYPE svg PUBLIC "-//W3C//DTD SVG 1.1//EN" "http://www.w3.org/Graphics/SVG/1.1/DTD/svg11.dtd">
<!-- Creator: CorelDRAW 2020 (64-Bit) -->
<svg xmlns="http://www.w3.org/2000/svg" xml:space="preserve" width="217.206mm" height="166.335mm" version="1.1" style="shape-rendering:geometricPrecision; text-rendering:geometricPrecision; image-rendering:optimizeQuality; fill-rule:evenodd; clip-rule:evenodd"
viewBox="0 0 5602.15 4290.09"
 xmlns:xlink="http://www.w3.org/1999/xlink"
 xmlns:xodm="http://www.corel.com/coreldraw/odm/2003">
 <defs>
  <style type="text/css">
   <![CDATA[
    .str0 {stroke:#565987;stroke-width:6.82;stroke-miterlimit:22.9256}
    .fil2 {fill:none;fill-rule:nonzero}
    .fil12 {fill:#444053;fill-rule:nonzero}
    .fil9 {fill:#65617D;fill-rule:nonzero}
    .fil14 {fill:#965D7B;fill-rule:nonzero}
    .fil13 {fill:#A36468;fill-rule:nonzero}
    .fil5 {fill:#A8A8A8;fill-rule:nonzero}
    .fil17 {fill:#B77B7F;fill-rule:nonzero}
    .fil1 {fill:#DB0610;fill-rule:nonzero}
    .fil10 {fill:#DCE0ED;fill-rule:nonzero}
    .fil16 {fill:#DDA2A6;fill-rule:nonzero}
    .fil7 {fill:#EFB7B9;fill-rule:nonzero}
    .fil4 {fill:#FFD037;fill-rule:nonzero}
    .fil15 {fill:black;fill-rule:nonzero;fill-opacity:0.011765}
    .fil8 {fill:black;fill-rule:nonzero;fill-opacity:0.050980}
    .fil3 {fill:black;fill-rule:nonzero;fill-opacity:0.101961}
    .fil0 {fill:#DB0610;fill-rule:nonzero;fill-opacity:0.101961}
    .fil11 {fill:white;fill-rule:nonzero;fill-opacity:0.101961}
    .fil6 {fill:black;fill-rule:nonzero;fill-opacity:0.200000}
    .fil18 {fill:white;fill-rule:nonzero;fill-opacity:0.301961}
   ]]>
  </style>
 </defs>
 <g id="Layer_x0020_1">
  <metadata id="CorelCorpID_0Corel-Layer"/>
  <g id="_2653758083088">
   <path class="fil0" d="M5493.74 1159.08c-55.34,-128.54 -130.63,-248.3 -222.24,-354.07l-3083.02 -30.39 2538.33 -356.51c-163.6,-65.12 -338.76,-99.97 -514.97,-102.09 -255.76,-204.47 -573.86,-316.02 -901.29,-316.02 -294.13,0 -581.38,90.05 -822.99,257.65 -203.23,-104.39 -428.71,-159.14 -657.35,-159.14 -0.7,0 -1.93,0 -2.63,0 -685.02,0 -1255.8,474.46 -1383.83,1103.59l5049.99 -43.01z"/>
   <path class="fil0" d="M5602.15 1686.74c0,-0.39 0,-0.88 0,-1.21 0,-170.21 -32.71,-338.95 -96.01,-496.79l-5343.26 560.85c-54.67,99.36 -96.94,206 -124.95,316.09l1654.74 246.62 -1692.67 179.91c50.92,712.23 661.47,1274.63 1407.33,1274.63 375.45,0 716.63,-142.51 969.4,-374.92 253.57,236.81 598.04,382.45 977.52,382.45 563.09,0 1049.06,-320.61 1275.37,-784.15 454.05,-144.1 806.74,-505.92 927.45,-958.58l-2092.51 -324.53 2137.37 0c0.11,-6.79 0.21,-13.58 0.21,-20.37z"/>
   <path class="fil0" d="M286.03 3918.31c0,-10.4 -61.31,-18.83 -136.94,-18.83 -75.63,0 -136.94,8.43 -136.94,18.83 0,10.4 61.31,18.83 136.94,18.83 75.63,0 136.94,-8.43 136.94,-18.83z"/>
   <path class="fil0" d="M810.61 3971.5c0,-10.4 -61.31,-18.83 -136.94,-18.83 -75.63,0 -136.94,8.43 -136.94,18.83 0,10.4 61.31,18.83 136.94,18.83 75.63,0 136.94,-8.43 136.94,-18.83z"/>
   <path class="fil0" d="M1428.54 3899.48c0,-10.4 -61.31,-18.83 -136.94,-18.83 -75.63,0 -136.94,8.43 -136.94,18.83 0,10.4 61.31,18.83 136.94,18.83 75.63,0 136.94,-8.43 136.94,-18.83z"/>
   <path class="fil0" d="M561.08 4122.97c0,-7.38 -43.6,-13.36 -97.37,-13.36 -53.78,0 -97.37,5.98 -97.37,13.36 0,7.38 43.6,13.37 97.37,13.37 53.78,0 97.37,-5.98 97.37,-13.37z"/>
   <path class="fil0" d="M1105.6 4109.61c0,-7.38 -43.6,-13.37 -97.37,-13.37 -53.78,0 -97.37,5.98 -97.37,13.37 0,7.38 43.6,13.36 97.37,13.36 53.78,0 97.37,-5.98 97.37,-13.36z"/>
   <path class="fil1" d="M676.64 3967.26c0,0 -192.1,-629.65 30.02,-881.84 166.22,-188.71 354.81,-166.11 439.3,-142.78 44.25,11.78 81.09,42.41 100.77,83.74 29.54,63.64 24.19,167.12 -184.3,287.83 -349.09,202.12 -370.78,479.34 -370.78,479.34l-15 173.7z"/>
   <path class="fil2 str0" d="M1115.89 3031.96c0,0 -566.22,177.04 -439.25,935.3"/>
   <path class="fil2 str0" d="M785.21 3095.44c0,0 77.96,52.51 53.04,131.48"/>
   <path class="fil2 str0" d="M1059.09 3142.12c0,0 -47.73,-48.48 -105.65,-21.75"/>
   <path class="fil2 str0" d="M835.28 3386.08c0,0 -83.69,-42.43 -105.33,10.61"/>
   <path class="fil2 str0" d="M628.17 3474.55c0,0 62.85,-4.98 64.02,25.09"/>
   <path class="fil1" d="M669.01 3972.3c0,0 224.98,-457.65 286.77,-447.63 29.33,4.77 42.85,33.63 49,62.64 2.45,12.05 3.68,24.37 3.68,36.68 0,25.82 -5.45,51.42 -15.93,75.01 -31.83,72.93 -117.85,212.15 -323.53,273.31z"/>
   <path class="fil2 str0" d="M953.92 3611.54c0,0 -236.12,342.4 -281.73,357.41"/>
   <line class="fil2 str0" x1="975.66" y1="3664.95" x2="920.56" y2= "3664.95" />
   <line class="fil2 str0" x1="909.63" y1="3790.22" x2="823.29" y2= "3793.93" />
   <line class="fil2 str0" x1="857.07" y1="3690.04" x2="866.46" y2= "3735.01" />
   <line class="fil2 str0" x1="765.21" y1="3826.98" x2="766.91" y2= "3867.87" />
   <path class="fil1" d="M675.53 3972.3c0,0 -224.98,-457.65 -286.77,-447.63 -29.33,4.77 -42.85,33.63 -49.01,62.64 -2.4,11.95 -3.63,24.21 -3.63,36.42 0,25.82 5.44,51.38 15.94,74.95 31.87,73.25 117.63,212.47 323.46,273.62z"/>
   <path class="fil2 str0" d="M390.46 3611.54c0,0 236.12,342.4 281.73,357.41"/>
   <line class="fil2 str0" x1="368.76" y1="3664.95" x2="423.87" y2= "3664.95" />
   <line class="fil2 str0" x1="434.74" y1="3790.22" x2="521.14" y2= "3793.93" />
   <line class="fil2 str0" x1="487.36" y1="3690.04" x2="477.97" y2= "3735.01" />
   <line class="fil2 str0" x1="579.21" y1="3826.98" x2="577.52" y2= "3867.87" />
   <path class="fil1" d="M1061.79 4079.16c6.13,-4.98 10.62,-11.73 12.84,-19.31 0.36,-1.4 0.55,-2.85 0.55,-4.3 0,-6.51 -3.68,-12.47 -9.51,-15.38 -8.22,-3.18 -17.02,2.55 -23.65,8.27 -6.63,5.73 -14.32,12.36 -23.02,11.14 7.2,-6.63 11.31,-15.99 11.31,-25.79 0,-2.34 -0.23,-4.69 -0.7,-6.98 -0.36,-2.46 -1.39,-4.77 -2.97,-6.68 -4.56,-4.88 -12.83,-2.76 -18.3,1.06 -17.39,12.2 -22.22,35.8 -22.33,57.07 -0.53,-4.37 -0.81,-8.81 -0.81,-13.21 0,-3.42 0.17,-6.9 0.49,-10.29 0,-7.85 -2.23,-16.6 -8.86,-20.79 -3.82,-2.09 -8.11,-3.19 -12.47,-3.19 -0.31,0 -0.64,0.01 -0.95,0.02 -7.85,0 -16.49,0.48 -21.85,6.21 -6.63,7.11 -4.93,18.99 0.85,26.84 6.44,7.25 14.1,13.4 22.59,18.09 6.38,3.88 11.82,9.15 15.92,15.38 0.48,0.88 0.87,1.8 1.17,2.76l48.95 0c11.15,-5.51 21.54,-12.56 30.77,-20.9l-0.01 0z"/>
   <path class="fil1" d="M204.56 3894.86c6.14,-4.98 10.62,-11.72 12.84,-19.31 0.36,-1.4 0.54,-2.84 0.54,-4.29 0,-6.53 -3.68,-12.5 -9.5,-15.44 -8.22,-3.13 -16.97,2.6 -23.65,8.33 -6.68,5.73 -14.27,12.3 -23.02,11.09 7.22,-6.61 11.33,-15.95 11.33,-25.74 0,-2.37 -0.24,-4.73 -0.72,-7.04 -0.39,-2.44 -1.44,-4.73 -3.02,-6.63 -4.56,-4.88 -12.83,-2.81 -18.3,1.06 -17.4,12.2 -22.22,35.8 -22.33,57.07 -0.53,-4.38 -0.81,-8.82 -0.81,-13.24 0,-3.44 0.17,-6.9 0.5,-10.31 0,-7.85 -2.18,-16.55 -8.81,-20.74 -3.84,-2.1 -8.15,-3.2 -12.52,-3.2 -0.31,0 -0.64,0.01 -0.95,0.02 -7.8,-0.32 -16.5,0.48 -21.85,6.21 -6.63,7.11 -4.88,18.99 0.85,26.52 6.44,7.31 14.12,13.46 22.65,18.14 6.39,3.87 11.83,9.13 15.91,15.38 0.48,0.88 0.89,1.81 1.22,2.75l48.95 0.01c11.11,-5.44 21.46,-12.41 30.71,-20.63l0 0z"/>
   <path class="fil1" d="M490.27 4079.16c6.13,-4.98 10.62,-11.73 12.84,-19.31 0.36,-1.4 0.55,-2.85 0.55,-4.3 0,-6.51 -3.69,-12.47 -9.51,-15.38 -8.22,-3.18 -17.03,2.55 -23.65,8.27 -6.63,5.73 -14.32,12.36 -23.02,11.14 7.2,-6.63 11.31,-15.99 11.31,-25.79 0,-2.34 -0.23,-4.69 -0.7,-6.98 -0.36,-2.46 -1.39,-4.77 -2.97,-6.68 -4.56,-4.88 -12.83,-2.76 -18.3,1.06 -17.39,12.2 -22.22,35.8 -22.33,57.07 -0.53,-4.37 -0.81,-8.81 -0.81,-13.21 0,-3.42 0.17,-6.9 0.49,-10.29 0,-7.85 -2.17,-16.6 -8.8,-20.79 -3.85,-2.09 -8.17,-3.19 -12.55,-3.19 -0.31,0 -0.62,0.01 -0.93,0.02 -7.8,0 -16.5,0.48 -21.85,6.21 -6.63,7.11 -4.93,18.99 0.85,26.84 6.44,7.25 14.1,13.4 22.59,18.09 6.38,3.88 11.82,9.15 15.92,15.38 0.48,0.88 0.87,1.8 1.17,2.76l48.95 0c11.15,-5.51 21.54,-12.56 30.77,-20.9l-0.01 0z"/>
   <path class="fil1" d="M1300.51 3706.58c0,0 18.35,24.03 -8.49,60.25 -26.84,36.22 -48.9,66.83 -39.99,89.42 0,0 40.47,-67.3 73.4,-68.26 32.93,-0.95 11.3,-40.94 -24.93,-81.41z"/>
   <path class="fil3" d="M1300.51 3706.58c1.6,2.32 2.87,4.86 3.77,7.53 32.14,37.76 49.22,72.98 18.35,73.88 -28.8,0.85 -63.27,52.29 -71.55,65.29 0.27,1.01 0.59,1.96 0.95,2.97 0,0 40.47,-67.3 73.4,-68.26 32.93,-0.95 11.29,-40.94 -24.93,-81.41z"/>
   <path class="fil4" d="M1334.61 3737.18c0,8.43 -0.95,15.27 -2.12,15.27 -1.17,0 -2.12,-6.84 -2.12,-15.27 0,-8.43 1.22,-4.46 2.39,-4.46 1.17,0 1.85,-3.98 1.85,4.46z"/>
   <path class="fil4" d="M1346.33 3747.26c-7.42,4.03 -13.89,6.47 -14.43,5.31 -0.53,-1.17 4.99,-5.31 12.41,-9.18 7.42,-3.87 4.45,-1.11 5.04,0 0.59,1.11 4.4,-0.16 -3.02,3.87z"/>
   <path class="fil1" d="M1203.56 3706.58c0,0 -18.35,24.03 8.49,60.25 26.84,36.22 48.95,66.83 39.99,89.42 0,0 -40.47,-67.3 -73.4,-68.26 -32.94,-0.95 -11.09,-40.94 24.93,-81.41z"/>
   <path class="fil3" d="M1203.56 3706.58c-1.58,2.31 -2.84,4.86 -3.71,7.53 -32.14,37.76 -49.27,72.98 -18.4,73.88 28.8,0.85 63.32,52.3 71.6,65.29 -0.32,1.01 -0.64,1.96 -1.01,2.97 0,0 -40.47,-67.3 -73.4,-68.26 -32.93,-0.95 -11.09,-40.94 24.92,-81.41z"/>
   <path class="fil4" d="M1169.46 3737.18c0,8.43 0.95,15.27 2.12,15.27 1.17,0 2.12,-6.84 2.12,-15.27 0,-8.43 -1.17,-4.46 -2.33,-4.46 -1.17,0 -1.91,-3.98 -1.91,4.46z"/>
   <path class="fil4" d="M1157.74 3747.26c7.43,4.03 13.9,6.47 14.48,5.31 0.58,-1.17 -5.04,-5.31 -12.41,-9.18 -7.37,-3.87 -4.51,-1.11 -5.3,0 -0.8,1.11 -4.13,-0.16 3.23,3.87z"/>
   <path class="fil5" d="M1175.29 3853.07c0,0 51.34,-1.54 66.77,-12.57 15.43,-11.03 78.92,-24.19 82.79,-6.52 3.87,17.66 77.06,87.83 19.15,88.3 -57.92,0.48 -134.55,-9.02 -149.99,-18.4 -15.43,-9.39 -18.72,-50.81 -18.72,-50.81z"/>
   <path class="fil6" d="M1345.06 3916.13c-57.92,0.48 -134.61,-9.02 -150.04,-18.4 -11.77,-7.16 -16.44,-32.83 -17.98,-44.71l-1.75 -0c0,0 3.29,41.42 18.72,50.81 15.43,9.39 92.07,18.88 149.99,18.4 16.76,0 22.49,-6.1 22.17,-14.9 -2.39,5.41 -8.7,8.7 -21.11,8.81z"/>
   <path class="fil0" d="M4995.04 4210.86c0,-43.76 -782.22,-79.24 -1747.13,-79.24 -964.91,0 -1747.13,35.47 -1747.13,79.24 0,43.76 782.22,79.24 1747.13,79.24 964.91,0 1747.13,-35.47 1747.13,-79.24z"/>
   <path class="fil7" d="M3069.92 1841.87c0,0 111.38,210.71 120.02,240.79 4.62,17.13 19.83,29.29 37.55,30.02 17.72,0.73 110.95,26.52 137.47,30.07 26.52,3.55 256.38,22.97 256.38,22.97 0,0 58.34,1.8 65.39,-19.41 6.47,-19.41 119.17,-121.4 184.41,-32.4 8.11,11.11 12.49,24.51 12.49,38.26 0,6.67 -1.03,13.3 -3.05,19.65 -11.99,38.19 -36.59,98.81 -63.01,61.1 -37.13,-53.04 -80.3,-38.13 -80.3,-9.86 0,28.27 -59.4,17.77 -78.81,21.75 -10.61,2.17 -47.1,11.88 -78.65,20.37 -36.58,9.84 -74.27,16.13 -112.03,18.58 -62.64,4.08 -154.97,7.48 -187.7,-4.88 -39.51,-15.01 -108.41,-18.46 -137.9,-19.25 -9.74,-0.2 -19.18,-3.59 -26.86,-9.62 -40.93,-32.01 -75.55,-71.44 -102.07,-116.09 -45.98,-79.56 -140.55,-244.29 -134.18,-292.02 6.37,-47.74 190.86,-0 190.86,-0z"/>
   <path class="fil8" d="M3069.92 1841.87c0,0 111.38,210.71 120.02,240.79 4.62,17.13 19.83,29.29 37.55,30.02 17.72,0.73 110.95,26.52 137.47,30.07 26.52,3.55 256.38,22.97 256.38,22.97 0,0 58.34,1.8 65.39,-19.41 6.47,-19.41 119.17,-121.4 184.41,-32.4 8.11,11.11 12.49,24.51 12.49,38.26 0,6.67 -1.03,13.3 -3.05,19.65 -11.99,38.19 -36.59,98.81 -63.01,61.1 -37.13,-53.04 -80.3,-38.13 -80.3,-9.86 0,28.27 -59.4,17.77 -78.81,21.75 -10.61,2.17 -47.1,11.88 -78.65,20.37 -36.58,9.84 -74.27,16.13 -112.03,18.58 -62.64,4.08 -154.97,7.48 -187.7,-4.88 -39.51,-15.01 -108.41,-18.46 -137.9,-19.25 -9.74,-0.2 -19.18,-3.59 -26.86,-9.62 -40.93,-32.01 -75.55,-71.44 -102.07,-116.09 -45.98,-79.56 -140.55,-244.29 -134.18,-292.02 6.37,-47.74 190.86,-0 190.86,-0z"/>
   <path class="fil2" d="M4347.62 3433.82c-50.44,54.84 -87.56,76.42 -85.81,18.56 5.31,-175.02 -302.31,-966.33 -302.31,-966.33l90.96 -6.9c198.52,342.04 272.34,693.78 297.17,954.66z"/>
   <path class="fil9" d="M4781.51 3815.68c-0.37,241.33 -196.21,436.79 -437.55,436.79 -226.92,0 -416.29,-173.66 -435.9,-399.68 -0.64,-7.11 -1.11,-14.21 -1.33,-21.21l0 -0.37c-0.22,-5.26 -0.33,-10.56 -0.33,-15.9 0,-241.62 195.94,-437.55 437.55,-437.55 241.61,0 437.55,195.94 437.55,437.55l0 0.37z"/>
   <circle class="fil10" cx="4343.96" cy="3815.41" r="238.66"/>
   <circle class="fil9" cx="4343.96" cy="3815.41" r="143.2"/>
   <path class="fil9" d="M3194.87 2984.49l-1053.62 21.21 0 -155.29c9.44,-125.01 137.9,-168.87 254.58,-182.6 27.29,-3.06 54.95,-4.67 82.43,-4.67 64.05,0 128.02,8.48 189.84,25.07 223.55,59.19 365.95,70.65 436.12,71.76 31.71,0.49 58.76,23.23 64.67,54.43 3.34,17.77 6.63,37.12 9.71,56.22 2.33,14.96 4.56,29.7 6.58,43.44 5.83,39.58 9.7,70.44 9.7,70.44z"/>
   <path class="fil1" d="M4035.45 3843.68l-2188.77 0c-0.28,0 -0.59,0 -0.87,0 -34.23,0 -65.21,-20.26 -78.95,-51.61 -16.49,-39.41 6.58,-64.55 31.19,-79.29 50.33,-29.86 88.54,-76.57 107.76,-131.84 23.34,-68.95 46.14,-176.82 55.1,-345.37 9.23,-174.33 72.34,-260.52 140.55,-302.31l0.01 -0.01c88.09,-53.88 184.67,-33.68 184.67,-33.68l887.46 7.11c15.76,7.13 30.44,16.71 43.33,28.27 79.08,73.61 -36.22,169.72 -36.22,169.72 -247.52,261.63 -60.14,526.81 -60.14,526.81l454.1 0c0.73,0 1.44,0 2.16,0 84.07,0 166.31,-25.41 235.69,-72.8 61.36,-42.43 84.86,-83.43 94.3,-108.25 7,-18.99 14.11,-37.92 22.59,-56.27 119.12,-258.34 -24.56,-678.6 -86.56,-835.75 -15.38,-39.09 -25.72,-61.9 -25.72,-61.9l142.4 -10.61 90.16 -6.84 0.92 -0.02c198.46,342.3 272.24,694.04 297.01,954.66 2.33,24.56 4.24,48.37 5.78,71.23 0.43,6.81 0.66,13.68 0.66,20.52 0,175.72 -142.5,318.22 -318.22,318.22 -0.12,0 -0.27,0 -0.39,0l-0.01 0z"/>
   <path class="fil3" d="M3185.22 2914.06l-1043.97 0 0 -43.44 1037.4 -0c2.33,14.69 4.56,29.44 6.57,43.44z"/>
   <path class="fil3" d="M3216.99 2935.27l-1107.09 0c-0.02,0 -0.04,0 -0.06,0 -2.86,0 -5.69,-0.58 -8.31,-1.7 88.09,-53.89 184.68,-33.68 184.68,-33.68l887.46 7.11c15.75,7.13 30.43,16.71 43.32,28.27l0.01 0z"/>
   <path class="fil10" d="M1722.52 2880.96l1503.69 0c11.98,-0 21.69,9.71 21.69,21.69l0 0.06c0,11.98 -9.71,21.69 -21.69,21.69l-1503.69 0c-11.98,-0 -21.69,-9.72 -21.69,-21.69l-0 -0.05c0,-11.98 9.72,-21.69 21.69,-21.69z"/>
   <path class="fil3" d="M4347.62 3433.82c-50.44,54.84 -87.56,76.42 -85.81,18.56 5.31,-175.02 -302.31,-966.33 -302.31,-966.33l90.96 -6.9c198.52,342.04 272.34,693.78 297.17,954.66z"/>
   <path class="fil1" d="M3824.26 3843.68c0,0 502.25,-54.52 329.25,-819.78 0,0 248.16,227.53 402.55,353.97 154.39,126.44 429.6,300.77 429.6,300.77 0,0 -164.31,153.54 -1161.4,165.05z"/>
   <path class="fil11" d="M3824.26 3843.68c0,0 502.25,-54.52 329.25,-819.78 0,0 248.16,227.53 402.55,353.97 154.39,126.44 429.6,300.77 429.6,300.77 0,0 -164.31,153.54 -1161.4,165.05z"/>
   <circle class="fil9" cx="2482.43" cy="3815.41" r="437.55"/>
   <circle class="fil10" cx="2482.43" cy="3815.41" r="238.66"/>
   <circle class="fil9" cx="2482.43" cy="3815.41" r="143.2"/>
   <path class="fil3" d="M2973.02 3683.99c0,-282.53 -224.4,-511.59 -501.2,-511.59 -276.8,0 -501.19,229.07 -501.19,511.59 -0,11.95 0.4,23.78 1.22,35.48l999.95 0c0.81,-11.7 1.22,-23.53 1.22,-35.48z"/>
   <path class="fil1" d="M2954.46 3675.18c0,-272.08 -216.07,-492.65 -482.63,-492.65 -266.56,0 -482.63,220.58 -482.63,492.65 0,11.51 0.42,22.86 1.17,34.16l962.93 0c0.75,-11.3 1.17,-22.65 1.17,-34.16z"/>
   <path class="fil11" d="M2954.46 3675.18c0,7.9 0,15.91 -0.58,23.55 0,3.55 -0.37,7.05 -0.58,10.61l-962.93 0c0,-3.55 -0.43,-7.05 -0.58,-10.61 -0.37,-7.8 -0.59,-15.91 -0.59,-23.55 0,-272.08 216.07,-492.65 482.63,-492.65 266.56,0 482.63,220.58 482.63,492.65z"/>
   <path class="fil3" d="M2953.87 3699c0,3.55 -0.37,7.05 -0.58,10.61l-962.93 0c0,-3.55 -0.43,-7.05 -0.58,-10.61l964.1 0z"/>
   <path class="fil3" d="M1834.64 3719.95l1183.46 0c31.25,-0 56.59,25.33 56.59,56.56l0 0c0,31.23 -25.34,56.56 -56.59,56.56l-1183.46 0c-31.25,-0 -56.59,-25.33 -56.59,-56.57l0 0c0,-31.24 25.34,-56.57 56.59,-56.57z"/>
   <path class="fil10" d="M1834.64 3709.34l1183.46 0c31.25,-0.01 56.59,25.33 56.59,56.56l0 0c0,31.23 -25.34,56.56 -56.59,56.56l-1183.46 0c-31.25,-0 -56.59,-25.33 -56.59,-56.57l0 0c0,-31.24 25.34,-56.57 56.59,-56.57z"/>
   <path class="fil3" d="M4253.29 2799.59c-36.39,-80.5 -91.82,-134.03 -123.8,-119.58 -31.97,14.46 -28.39,91.43 8.01,171.93 36.4,80.5 91.82,134.03 123.8,119.58 31.98,-14.46 28.39,-91.43 -8.01,-171.93z"/>
   <ellipse class="fil10" transform="matrix(0.70817 -0.320198 0.320198 0.70817 4200.7 2820.44)" rx="81.75" ry="205.81"/>
   <path class="fil3" d="M4049.66 2479.16l0 83.11 -161.76 0c-0.08,-0 -0.21,-0 -0.28,-0 -14.94,0 -29.94,-1.22 -44.68,-3.61 -15.38,-39.09 -25.72,-61.89 -25.72,-61.89l142.4 -10.61 90.04 -7z"/>
   <path class="fil1" d="M4049.66 2551.45l-161.76 0c-142.08,0 -257.23,-106.07 -257.23,-237.45l0 -22.01c0,-131.11 115.14,-237.39 257.23,-237.39l161.76 14.69 0 482.16z"/>
   <path class="fil1" d="M3783.15 2195.15c0,0 96.79,51.71 41.1,139.22 0,0 -68.31,112.01 -175.71,101.41l-39.09 -240.63c0,0 128.61,-11.93 173.7,0z"/>
   <path class="fil3" d="M3745.97 2190.48c31.15,1.17 60.13,16.46 78.71,41.48 17.24,23.87 27.53,58.66 -0.32,102.41 0,0 -68.31,112.01 -175.71,101.41l-39.09 -240.63c0,0 80.46,-7.69 136.41,-4.67z"/>
   <path class="fil3" d="M4044.36 2069.29l31.18 0c54.53,0 98.75,44.22 98.75,98.75l0 284.7c0,54.53 -44.22,98.75 -98.75,98.75l-31.18 0.01 0 -482.21z"/>
   <path class="fil10" d="M4049.66 2069.29l31.18 0c54.53,0 98.75,44.22 98.75,98.75l0 284.7c0,54.53 -44.22,98.75 -98.75,98.75l-31.18 0.01 0 -482.21z"/>
   <path class="fil7" d="M2901.21 2688.55c0,0 24.98,9.12 58.34,21.85 53.04,20.42 127.82,50.23 153.8,66.56 25.99,16.33 122.89,43.17 195.44,62.05 51.98,13.42 105.82,20.33 159.59,20.33 1.71,0 3.42,0 5.13,0 56.43,-0.53 124.79,-1.06 143.68,-1.06 0.18,-0.02 0.34,-0.02 0.5,-0.02 3.13,0 6.29,0.26 9.38,0.75 19.84,3.29 19.04,16.6 18.56,19.78l0 0.69c-116.68,70.7 -258.13,387.17 -266.93,440.2 -6.63,39.78 -64.92,150.04 -93.66,202.76 -9.65,17.66 -15.91,28.85 -15.91,28.85l35.38 40.63 102.52 45.98 97.21 42.43c0,0 102.57,5.3 104.33,0 1.75,-5.31 1.75,-60.09 1.75,-60.09 -12.43,-8.02 -24.38,-17.07 -35.44,-26.93 -23.45,-20.42 -45.41,-42.89 -65.31,-66.79 -56.54,-67.2 56.59,-196.23 56.59,-196.23l217.45 -282.84c0,0 17.66,-31.82 102.52,-159.11 84.86,-127.29 0,-196.24 0,-196.24l-149.35 -62c-259.03,-96.95 -571.47,-174.65 -571.47,-174.65l-4.45 -0.58 -66.24 -8.27 -193.39 241.95z"/>
   <path class="fil12" d="M3568.57 3637.9c0,0 18.56,21.9 4.67,23.87 -13.9,1.96 -50.38,-5.94 -50.38,-5.94l-231.4 -121.98c0,0 -25.19,-17.93 -31.13,17.24 -5.94,35.16 -9.97,31.82 -9.97,31.82 0,0 -30.5,65.61 0,79.18 30.5,13.57 213.69,67.3 213.69,67.3 0,0 265.87,60.36 291.06,-9.28 25.19,-69.64 -45.08,-57.65 -45.08,-57.65 0,0 -87.51,-21.21 -117.37,-63.64 -0.21,-0 -43.28,11.93 -24.08,39.09z"/>
   <path class="fil8" d="M3885.89 2692.1l-149.35 -62c-259.03,-96.95 -571.47,-174.65 -571.47,-174.65l-4.45 -0.58 -66.24 -8.28 -193.16 241.95c0,0 24.98,9.12 58.34,21.85 53.04,20.42 127.82,50.23 153.8,66.56 25.99,16.33 122.89,43.17 195.44,62.05 51.98,13.42 105.82,20.33 159.59,20.33 1.71,0 3.42,0 5.13,0 56.43,-0.53 124.79,-1.06 143.68,-1.06 0.18,-0.02 0.34,-0.02 0.5,-0.02 3.13,0 6.29,0.26 9.38,0.75 19.84,3.29 19.04,16.6 18.56,19.78l0 0.69c-116.68,70.7 -258.13,387.17 -266.93,440.2 -6.63,39.78 -64.92,150.04 -93.66,202.76l-3.87 7.11c-7.69,-1.27 -17.29,1.49 -20.69,21.53 -5.99,35.11 -9.97,31.82 -9.97,31.82 0,0 -30.5,65.61 0,79.18 30.5,13.57 213.53,67.3 213.53,67.3 0,0 265.87,60.36 291.06,-9.28 25.19,-69.64 -45.08,-57.65 -45.08,-57.65 0,0 -87.51,-21.21 -117.37,-63.64 -2.64,0.76 -5.24,1.73 -7.75,2.86 -3.13,-2.55 -6.47,-5.3 -10.02,-8.38 -23.46,-20.4 -45.42,-42.87 -65.32,-66.77 -56.54,-67.2 56.59,-196.23 56.59,-196.23l217.45 -282.84c0,0 17.66,-31.82 102.52,-159.11 84.86,-127.29 -0.23,-196.23 -0.23,-196.23z"/>
   <path class="fil7" d="M2723.11 1505.73l8.06 10.18 4.51 5.67 28.11 35.38c0,0 67.09,21.53 125.91,35.48 61.26,14.48 113.5,20.79 71.97,-13.84 -25.78,-21.48 -27.47,-57.44 -18.09,-96 7.85,-29.63 19.25,-58.4 33.75,-85.41 2.07,-4.02 4.14,-7.94 6.19,-11.75 13.16,-24.31 27.85,-48.07 43.75,-70.62 -37.63,-26.02 -77,-50.23 -117.15,-71.99 -48.58,-25.14 -88.47,-36.12 -63.17,13.63 16.23,31.82 10.92,67.57 -4.25,101.78 -1.17,2.7 -2.44,5.3 -3.77,8.11 -13.63,26.56 -30.51,51.32 -50.11,73.73 -20.02,23.47 -42.17,45.62 -65.73,65.63l0.01 0.02z"/>
   <polygon class="fil12" points="3059.04,2313.63 3095.01,2346.46 3129.74,2480.11 3071.77,2480.11 3007.76,2396.85 "/>
   <polygon class="fil3" points="3007.76,2396.85 3046.48,2447.18 3071.77,2480.11 3129.74,2480.11 3123.8,2457.25 3098.5,2359.88 3095.01,2346.46 3059.04,2313.63 3009.93,2393.29 "/>
   <polygon class="fil3" points="3007.76,2396.85 3046.48,2447.18 3071.77,2480.11 3129.74,2480.11 3123.8,2457.25 3098.5,2359.88 3095.01,2346.46 3059.04,2313.63 3009.93,2393.29 "/>
   <path class="fil7" d="M2815.08 2748.53c0,0 24.98,9.12 58.34,21.85 53.04,20.42 127.82,50.22 153.8,66.56 25.99,16.33 122.89,43.17 195.44,62.05 52.1,13.47 105.94,20.38 159.79,20.38 1.63,0 3.34,0 4.97,0 56.43,-0.53 124.79,-1.06 143.68,-1.06 0.13,-0.02 0.3,-0.02 0.46,-0.02 3.13,0 6.29,0.26 9.38,0.75 19.83,3.29 19.04,16.6 18.56,19.78l0 0.69c-116.68,70.7 -258.13,387.17 -266.94,440.21 -6.63,39.78 -64.92,150.04 -93.66,202.76 -9.65,17.66 -15.91,28.85 -15.91,28.85l35.38 40.62 102.47 45.93 97.21 42.43c0,0 102.57,5.31 104.32,0 1.75,-5.3 1.75,-60.09 1.75,-60.09 -12.43,-8.02 -24.38,-17.07 -35.44,-26.93 -23.45,-20.42 -45.41,-42.89 -65.31,-66.79 -56.54,-67.2 56.59,-196.23 56.59,-196.23l217.45 -282.84c0,0 17.66,-31.82 102.52,-159.11 84.86,-127.29 0,-196.23 0,-196.23l-136.09 -77.8c-212.15,-129.04 -510.96,-203.29 -510.96,-203.29l-4.46 -0.58 -66.26 -8.27 -267.09 286.4z"/>
   <path class="fil3" d="M3182.94 3611.28l35.38 40.62 102.52 45.98 97.21 42.43c0,0 102.57,5.31 104.32,0 1.75,-5.3 1.75,-60.09 1.75,-60.09 -12.43,-8.02 -24.38,-17.07 -35.44,-26.93 -10.98,5.89 -23.44,16.92 -11.4,34 0,0 18.56,21.85 4.67,23.87 -13.9,2.01 -50.38,-5.94 -50.38,-5.94l-231.4 -121.98 -1.31 -0.92c-9.76,17.77 -15.91,28.96 -15.91,28.96z"/>
   <path class="fil12" d="M3482.44 3697.89c0,0 18.56,21.85 4.61,23.87 -13.95,2.02 -50.38,-5.99 -50.38,-5.99l-231.34 -121.99c0,0 -25.19,-17.87 -31.19,17.24 -5.99,35.11 -9.92,31.82 -9.92,31.82 0,0 -30.5,65.66 0,79.24 30.5,13.58 213.47,67.09 213.47,67.09 0,0 265.82,60.3 291.01,-9.28 25.19,-69.58 -45.08,-57.71 -45.08,-57.71 0,0 -87.51,-21.21 -117.32,-63.64 0.16,0.21 -43.12,12.15 -23.87,39.35z"/>
   <path class="fil3" d="M2829.18 1344.81c30.66,21.21 77.43,54.79 117.37,54.79 10.3,0 20.6,-0.84 30.75,-2.44 14.68,-28.48 31.57,-56.14 49.95,-82.39 18.38,-26.26 -233.36,-162.66 -180.32,-58.34 17.46,34.71 0.23,51.74 -17.75,88.39z"/>
   <path class="fil7" d="M2755.62 1198.06c0,0.04 0,0.11 0,0.16 0,64.62 32.79,124.9 87.03,160.01 5.97,3.91 12.26,7.48 18.67,10.61 26.47,13.21 55.65,20.08 85.23,20.08 105.43,0 190.93,-85.5 190.93,-190.93 0,-105.43 -85.5,-190.93 -190.93,-190.93 -105.43,0 -190.93,85.48 -190.93,190.91l-0 0.1z"/>
   <path class="fil3" d="M2815.08 2748.53c0,0 24.98,9.12 58.34,21.85 20.95,-18.46 42.43,-36.28 51.39,-39.51 19.46,-7.11 83.11,-44.23 81.36,-54.84 -1.75,-10.61 26.52,-51.23 51.23,-58.34 24.72,-7.11 10.61,-44.18 10.61,-44.18 0,0 47.73,-17.66 59.61,-42.43 11.88,-24.77 48.26,-56.59 35.85,-54.79 -5.38,-0.87 -10.52,-2.88 -15.06,-5.89l-66.24 -8.27 -267.09 286.4z"/>
   <path class="fil12" d="M2670.08 2684.89c0,0 81.36,67.2 85.12,97.21 3.77,30.02 58.08,28.32 58.08,28.32 0,0 81.36,-77.8 100.77,-84.86 19.41,-7.05 83.11,-44.23 81.36,-54.84 -1.75,-10.61 26.52,-51.23 51.24,-58.34 24.71,-7.11 10.61,-44.18 10.61,-44.18 0,0 47.74,-17.66 59.61,-42.43 11.88,-24.77 48.26,-56.59 35.85,-54.78 -3.5,0.48 -14.69,-5.31 -28.9,-13.74 -17.45,-10.61 -39.56,-24.98 -57.6,-37.12 -19.09,-12.94 -33.68,-23.23 -33.68,-23.23 0,0 -8.33,-1.49 -22.59,-3.55 -76.96,-11.14 -327.61,-39.56 -385.79,53.04 -7.76,12.22 -13.58,25.62 -17.23,39.62 -26.05,98.65 63.16,198.89 63.16,198.89z"/>
   <path class="fil3" d="M2755.15 2470.51c0,0 -83.06,46.88 -114.03,46.88 -30.97,0 114.03,-46.88 114.03,-46.88z"/>
   <path class="fil3" d="M2810.62 2506.31c0,0 -123.68,41.58 -123.68,74.25 0,32.67 -11.56,-87.51 123.68,-74.25z"/>
   <path class="fil3" d="M3106.73 2319.04l-1.75 2.39c0.8,-0.62 1.41,-1.45 1.75,-2.39l0 0.01z"/>
   <path class="fil3" d="M2723.11 1505.73l8.06 10.18 4.51 5.67 28.11 35.38c0,0 67.09,21.53 125.91,35.48 61.26,14.48 113.5,20.79 71.97,-13.84 -25.78,-21.48 -27.47,-57.44 -18.09,-96l-1.86 -2.39c0,0 1.86,35.75 -19.31,36.44 -28.53,0.9 -28.9,-8.7 -55.21,-19.78 -33.89,-14.32 -68.63,-38.24 -78.39,-56.85 -20.11,23.53 -42.18,45.61 -65.75,65.69l0.04 0.02z"/>
   <path class="fil3" d="M2606.91 2485.84c7.6,3.24 15.81,4.93 24.08,4.93 7.31,0 14.57,-1.31 21.43,-3.87 54.78,-17.71 141.45,-60.36 182.07,-41.68 32.56,14.95 163.72,14.53 212.15,1.96 12.04,-3.13 18.93,-7 17.87,-11.56 -0.17,-1.36 -0.26,-2.74 -0.26,-4.11 0,-3.9 0.72,-7.79 2.12,-11.43 5.62,-17.98 20.9,-42.96 32.3,-60.2l-3.5 -13.42 -35.96 -32.83 -49.11 79.56c-76.96,-11.14 -327.61,-39.56 -385.79,53.04 -7.8,12.19 -13.69,25.62 -17.4,39.62l0.01 0z"/>
   <path class="fil13" d="M2571.11 2444.47c0,0 21.21,49.48 76,31.82 54.79,-17.66 141.45,-60.36 182.08,-41.69 40.62,18.67 235.16,13.37 229.86,-9.6 -5.31,-22.97 47.73,-95.47 47.73,-95.47 0,0 -28.96,-5.31 -46.88,-99.87 -2.65,-13.79 -5.04,-29.49 -7.05,-47.31 -2.82,-23.76 -4.29,-47.8 -4.29,-71.76 0,-12.72 0.52,-25.58 1.25,-38.22 7.13,-102.38 42.98,-144.17 42.98,-144.17 0,0 49.48,-56.54 7.05,-134.34 -22.22,-40.78 -111.91,-153.81 -113.13,-204.19 -1.11,-45.72 -44.82,-98.86 -44.82,-98.86 0,0 1.86,35.75 -19.31,36.44 -28.53,0.9 -28.9,-8.7 -55.21,-19.78 -38.66,-16.33 -78.39,-45.13 -80.99,-64.38 0,0 -162.08,-8.11 -197.45,156.3 -35.37,164.41 -22.97,254.58 -17.66,274.04 5.3,19.47 51.23,270.49 14.11,376.56 -37.12,106.07 -14.27,194.49 -14.27,194.49z"/>
   <path class="fil3" d="M2835.39 2155.64c29.21,49.32 68.35,92.08 114.87,125.54 31.01,0.16 62.11,2.4 92.82,6.19 -2.65,-13.79 -5.31,-29.49 -7.05,-47.31 -2.82,-23.75 -4.29,-47.78 -4.29,-71.75 0,-12.72 0.52,-25.58 1.25,-38.22 -10.33,-5.18 -17.92,-14.54 -20.82,-25.69 -8.86,-30.07 -87.72,-173.27 -87.72,-173.27 0,0 -184.52,-47.73 -190.93,0 -6.42,47.74 55.9,144.95 101.88,224.51z"/>
   <path class="fil7" d="M2896.54 1841.87c0,0 111.38,210.71 120.02,240.79 4.61,17.13 19.83,29.29 37.55,30.02 17.72,0.73 110.95,26.52 137.47,30.07 26.52,3.55 256.54,22.97 256.54,22.97 0,0 58.34,1.81 65.4,-19.41 6.47,-19.41 119.17,-121.4 184.41,-32.4 8.11,11.1 12.49,24.51 12.49,38.26 0,6.67 -1.03,13.3 -3.05,19.65 -11.99,38.19 -36.59,98.81 -63.01,61.1 -37.13,-53.04 -80.3,-38.13 -80.3,-9.86 0,28.27 -59.4,17.77 -78.81,21.75 -10.61,2.17 -47.1,11.88 -78.65,20.37 -36.64,9.88 -74.47,16.18 -112.3,18.62 -62.64,4.08 -154.97,7.48 -187.7,-4.88 -39.46,-15.01 -108.35,-18.46 -137.9,-19.25 -9.74,-0.25 -19.18,-3.64 -26.86,-9.66 -40.88,-32.03 -75.55,-71.52 -102.03,-116.12 -45.98,-79.56 -140.55,-244.29 -134.18,-292.02 6.36,-47.73 190.92,0.02 190.92,0.02z"/>
   <path class="fil3" d="M2859.41 1549.9c0,0 59.67,99.02 87.3,169.72 27.63,70.7 61.2,194.48 61.2,194.48l-166.22 -19.47 -14.11 -22.96c0,0 -118.69,74.25 -104.53,106.07 14.16,31.82 -31.82,-47.73 -28.27,-137.89 3.55,-90.16 -12.78,-251.08 0,-289.95 12.78,-38.88 125.54,-30.07 164.62,0z"/>
   <path class="fil13" d="M2695 1829.25c-3.55,90.16 42.43,169.72 28.27,137.9 -14.16,-31.82 104.53,-106.07 104.53,-106.07l13.95 22.96 166.16 19.47c0,0 -33.57,-123.79 -61.2,-194.49 -16.56,-39.92 -35.7,-79.14 -56.83,-116.64 -17.03,-30.92 -30.44,-53.04 -30.44,-53.04 -22.86,-17.66 -71.39,-28 -110.11,-25.56 -6.05,0.28 -12.07,1.03 -18,2.13 -15.91,3.13 -28.75,9.17 -34.42,18.72 -0.86,1.48 -1.58,3.05 -2.12,4.67 -12.73,38.88 3.61,199.79 0.21,289.95z"/>
   <path class="fil3" d="M2620.75 2076.08c0,0 70.27,96.79 91.49,99.44 -0.16,0.21 -90.32,-19.89 -91.49,-99.44z"/>
   <path class="fil3" d="M2620.75 2213.98c0,0 132.59,133.92 175.02,135.24 42.43,1.33 -175.02,-135.24 -175.02,-135.24z"/>
   <path class="fil3" d="M2620.75 2269.88c0,0 84.86,99.44 90.16,99.44 5.3,0 -91.65,-34.47 -90.16,-99.44z"/>
   <path class="fil3" d="M2696.75 1534.63c13.63,-2.03 26.82,-6.46 38.93,-13.05 4.56,-2.39 9.07,-5.04 13.47,-7.85 17.36,-11.6 33.62,-24.98 48.36,-39.76 24.4,-23.71 48.74,-49.59 58.82,-82.1 2.26,-7.49 3.96,-15.19 5,-22.93 6.05,-40.78 0.95,-85.81 30.12,-113.55 5.47,-5.16 11.78,-9.43 18.61,-12.57 41.37,-19.68 101.35,-6.95 132.22,-42.43 19.63,-22.49 19.15,-53.73 34.21,-78.18 6.58,-10.61 18.67,-19.78 29.38,-29.54 -35.29,-53.72 -95.29,-86.1 -159.58,-86.1 -105.43,0 -190.93,85.5 -190.93,190.93 0,64.78 32.91,125.2 87.29,160.35 -1.17,2.7 -2.44,5.3 -3.77,8.11 -36.44,74.25 -115.78,139.38 -115.78,139.38l8.06 10.18c-16.07,3.67 -28.75,9.55 -34.42,19.1z"/>
   <path class="fil14" d="M3031.68 1195.2c-35.9,41.16 -111.38,17.19 -150.89,54.89 -34.69,33.04 -20.9,90.69 -35.06,136.46 -10.08,32.51 -34.42,58.34 -58.82,82.1 -35.54,34.58 -80.99,69.69 -129.57,59.77 -28.8,-5.89 -57.01,-27.42 -84.86,-17.5 -13.84,4.99 -23.76,16.97 -34.1,27.53 -35.13,35.78 -80.83,59.42 -130.32,67.4 -4.01,0.92 -8.13,1.38 -12.25,1.38 -5.87,0 -11.7,-0.93 -17.28,-2.74 -14.85,-6.05 -22.86,-22.27 -36.38,-30.92 -26.52,-16.97 -60.57,0.43 -88.09,15.59 -90.01,48.77 -191.08,74.36 -293.51,74.36 -72.62,0 -144.8,-12.87 -212.91,-37.93l42.91 -21.21c-9.12,-18.62 -33.78,-22.7 -49.48,-36.33 -32.35,-28.05 -13.31,-84.17 20.9,-109.89 34.21,-25.72 78.5,-34.69 113.93,-58.71 7.21,-4.88 14.53,-11.35 15.22,-20 -0.09,-6.34 -2.11,-12.52 -5.76,-17.71 -18.88,-33.25 -39.78,-68.95 -35.54,-106.97 6.47,-58.34 70.17,-94.19 128.67,-98.28 58.5,-4.08 116.41,13.53 175.02,14.53 21.21,0.37 43.44,-1.7 61.63,-12.68 25.41,-15.27 38.18,-44.39 53.62,-69.69 27.54,-44.89 67.05,-81.35 114.03,-105.12 53.04,-26.78 113.07,-36.17 168.23,-58.34 56.32,-22.59 107.56,-58.34 166.48,-72.71 85.55,-21.22 177.2,6.52 251.08,54.47 35.59,23.07 149.24,97.11 148.5,144.47 -0.58,28.11 -37.12,43.33 -50.97,65.39 -15.29,24.66 -14.81,55.9 -34.43,78.38z"/>
   <g>
    <path class="fil15" d="M1880.15 1335.16c3.63,5.21 5.64,11.38 5.79,17.72 -0.21,2.23 -0.84,4.41 -1.86,6.42 -15.59,-27.47 -31.82,-56.59 -34.42,-87.25 6.89,21.91 19.03,42.96 30.49,63.11z"/>
    <path class="fil15" d="M1735.89 1541.47c15.65,13.63 40.31,17.71 49.48,36.33l-15.17 7.53c-10.21,-4.79 -19.96,-10.63 -29.02,-17.33 -10.61,-9.48 -16.7,-23.03 -16.7,-37.27 0,-1.32 0.05,-2.64 0.16,-3.95 2.7,5.61 6.53,10.62 11.25,14.69l-0.01 -0z"/>
    <path class="fil15" d="M2248.86 1562.63c27.53,-15.17 61.63,-32.56 88.09,-15.59 13.47,8.65 21.53,24.88 36.38,30.92 5.56,1.82 11.4,2.75 17.25,2.75 4.12,0 8.23,-0.47 12.24,-1.37 49.49,-7.96 95.23,-31.62 130.37,-67.39 10.29,-10.61 20.21,-22.54 34.1,-27.53 27.68,-9.92 55.9,11.61 84.86,17.5 48.58,9.92 93.98,-25.19 129.57,-59.77 24.4,-23.71 48.69,-49.59 58.76,-82.1 14.21,-45.77 0.43,-103.42 35.11,-136.46 39.62,-37.71 114.93,-13.74 150.89,-54.89 19.57,-22.49 19.15,-53.72 34.21,-78.18 12.73,-20.63 45.72,-35.27 50.38,-60.14 3.63,6.47 5.66,13.77 5.88,21.21 -0.58,28.11 -37.12,43.33 -50.97,65.39 -15.06,24.45 -14.64,55.69 -34.21,78.18 -35.96,41.16 -111.38,17.19 -150.89,54.89 -34.69,33.04 -20.9,90.69 -35.11,136.46 -10.08,32.51 -34.37,58.34 -58.76,82.1 -35.59,34.58 -80.99,69.69 -129.57,59.77 -28.85,-5.89 -57.07,-27.42 -84.86,-17.5 -13.9,4.99 -23.81,16.97 -34.1,27.53 -35.13,35.78 -80.87,59.44 -130.36,67.42 -4.01,0.89 -8.13,1.35 -12.24,1.35 -5.85,0 -11.69,-0.93 -17.25,-2.74 -14.85,-6.05 -22.91,-22.28 -36.38,-30.92 -26.52,-16.97 -60.57,0.43 -88.09,15.59 -90.01,48.77 -191.08,74.36 -293.51,74.36 -72.62,0 -144.8,-12.87 -212.91,-37.93l29.65 -14.69c57.61,17.3 117.56,26.12 177.73,26.12 102.55,0 203.58,-25.64 293.76,-74.35l-0.02 0.02z"/>
   </g>
   <path class="fil3" d="M3559.5 2938.77l44.6 -21.59 0 -8.43c0,-3.24 -35.59,3.93 -63.17,10.03 19.84,3.5 19.04,16.81 18.56,19.99z"/>
   <ellipse class="fil1" cx="3598.27" cy="2320.31" rx="107.45" ry="130.74"/>
   <polygon class="fil16" points="2564.05,2150.17 2391.32,2320.53 1823.45,2310.61 1979.59,2150.17 "/>
   <polygon class="fil17" points="2564.05,2732.94 2564.05,2150.17 2391.32,2320.53 2391.32,2890.78 "/>
   <polygon class="fil16" points="1823.45,2310.61 1823.45,2890.78 2391.32,2890.78 2391.32,2320.53 "/>
   <polygon class="fil18" points="1823.45,2310.61 1823.45,2890.78 2391.32,2890.78 2391.32,2320.53 "/>
   <polygon class="fil10" points="2345.17,2480.22 1922.84,2407.72 1867.79,2684.99 2302.59,2764.87 "/>
   <polygon class="fil1" points="2261.75,2544.98 1977.84,2500.37 1970.73,2537.39 2254.64,2585.55 "/>
   <polygon class="fil1" points="2183.68,2624.16 2022.18,2600.72 2015.07,2641.82 2183.68,2665.48 "/>
   <polygon class="fil9" points="2494.21,2456.03 2486.52,2226.6 2442.13,2270.41 2449.87,2500.37 "/>
   <polygon class="fil9" points="1922.47,2208.88 2468.16,2216.26 2486.52,2226.6 2442.13,2270.41 2426.79,2261.39 1886.3,2246.06 "/>
  </g>
 </g>
</svg>
